<svg width="212" height="257" viewBox="0 0 212 257" fill="none" xmlns="http://www.w3.org/2000/svg">
<path d="M97.7008 70.7161C98.2489 70.2299 108.3 65.202 113.478 62.6547C138.072 50.5499 150.181 47.1757 171.082 37.9281C186.906 30.9273 206.7 20.8395 203.399 2.28882e-05C201.796 2.02506 200.532 2.91736 199.834 3.49575C194.141 8.22306 191.086 10.8786 186.013 14.536C158.996 34.0156 125.433 42.3549 98.3679 62.3087L95.8748 64.3284C95.8748 64.3284 96.983 66.5271 97.2116 67.2484C97.7784 69.0424 97.7008 70.7161 97.7008 70.7161Z" fill="#F7941D"/>
<path d="M210.64 13.6527C203.355 20.9514 198.818 26.0287 190.31 31.0565C155.483 51.6382 111.371 58.6096 80.8434 87.2353C80.0854 85.8034 82.1134 83.7944 82.9943 82.7284C85.0423 80.2466 94.9226 71.8338 94.9226 71.8338C94.9226 71.8338 95.1151 66.2396 89.3428 61.177C82.0185 54.7532 77.1431 52.8551 70.3214 46.9349C64.3352 41.7387 61.9464 34.8435 51.7198 36.7937C42.9143 38.4728 31.7921 48.3308 23.3649 57.0775C18.2195 62.4193 14.2813 67.5313 12.0809 69.7406C-8.1249 90.0324 -0.656165 117.563 24.7565 115.65C30.1759 115.243 31.6437 112.992 31.6023 107.675C27.2189 108.325 25.969 105.449 25.969 102.637L22.9344 102.619L22.9451 107.114C22.9451 107.114 22.3409 108.236 20.4252 108.18C10.5503 107.889 8.50627 93.8274 13.2011 86.7611C15.1502 83.8251 16.888 82.1941 19.0082 81.0948L19.0042 81.0894C19.0042 81.0894 23.1403 78.8814 27.4582 77.8087C35.7557 75.745 36.4254 71.9233 38.2983 71.5226C36.2917 74.5989 36.2062 78.2175 38.5456 77.1849C40.7941 76.1938 42.3502 75.5473 44.3914 75.7089C46.2095 75.8532 48.7267 75.8104 50.2266 78.9308C50.8816 80.2946 52.8427 84.2766 50.8576 93.4934C49.5635 99.4991 47.6452 103.258 47.8177 117.877C48.4299 169.708 92.8025 184.007 105.021 227.666C107.701 237.243 108.998 246.449 108.154 256.001C108.061 257.061 109.538 257.403 109.916 256.408C121.295 217.303 111.75 203.682 102.696 167.825C97.6698 147.918 102.406 134.778 109.713 115.753C107.434 115.869 98.0053 115.993 92.5592 122.298C98.7847 111.009 116.135 112.388 127.554 105.543C134.432 101.421 137.913 97.9923 141.128 93.1689C131.567 94.3203 125.533 94.1507 123.244 94.009C122.397 93.957 119.954 93.5282 119.855 92.5023C131.647 92.708 144.38 91.4497 155.473 87.2487C161.784 84.859 169.601 80.2813 171.929 73.7012C165.684 76.2245 158.572 78.0652 151.861 78.8239C151.068 78.9121 149.46 79.25 149.516 78.0465C167.531 74.0953 195.402 63.7911 200.006 43.5554C200.252 42.4774 200.572 40.8732 198.513 42.2931C191.754 46.9563 184.34 51.3657 176.437 53.6285C175.742 53.8275 173.206 54.7853 173.388 53.4695C191.083 46.1014 214.162 34.6952 210.64 13.6527Z" fill="#F7941D"/>
</svg>
