<svg width="1044" height="185" viewBox="0 0 1044 185" fill="none" xmlns="http://www.w3.org/2000/svg">
<path d="M37.9372 68.696V51.5179H0V182.252H37.9372V147.751V120.53V83.8304H81.2242V49.573C68.9016 49.573 58.4451 51.9668 49.8548 56.7422C44.3418 59.8078 38.9865 66.5307 37.9372 68.696Z" fill="white"/>
<path d="M273.585 68.696V51.5179H235.648V182.252H273.585V147.751V120.53V83.8304H316.872V49.573C304.549 49.573 294.093 51.9668 285.503 56.7422C279.99 59.8078 273.819 67.1225 273.585 68.696Z" fill="white"/>
<path d="M761.906 68.696V51.5179H723.969V182.252H761.906V147.751V120.53V83.8371H805.193V49.573C792.87 49.573 782.414 51.9668 773.824 56.7422C768.311 59.8078 765.482 63.7991 761.906 68.696Z" fill="white"/>
<path d="M1036.95 74.7238C1032.41 66.2175 1026.13 59.902 1018.1 55.7691C1010.08 51.6389 1000.87 49.5724 990.501 49.5724C977.855 49.5724 966.748 52.6113 957.184 58.6864C951.746 62.1381 947.178 66.2563 943.418 70.9916C940.343 66.0092 936.437 61.8883 931.65 58.6864C922.569 52.6113 912.032 49.5724 900.036 49.5724C889.495 49.5724 880.01 51.8806 871.583 56.4971C866.784 59.1259 862.665 62.476 859.18 66.4954V51.5173H822.946V182.251H860.882V150.665V116.64V82.2709H914.627V113.24V150.665V182.251H952.564V150.665V116.64V82.3765H1005.82V113.24V150.665V182.251H1043.76V107.406C1043.76 94.1246 1041.49 83.2273 1036.95 74.7238Z" fill="white"/>
<path d="M523.583 24.549H559.754L566.14 6.80583C562.573 4.53767 558.195 2.83589 553.008 1.70314C547.819 0.570404 542.552 3.05176e-05 537.202 3.05176e-05C520.988 3.05176e-05 508.506 4.37604 499.75 13.1241C490.995 21.8707 486.619 33.699 486.619 48.601V54.4343H466.434V83.593H486.619V182.252H524.798V83.593H557.142V54.4343H523.583V49.0885V24.549Z" fill="white"/>
<path d="M425.664 105.464H361.478V78.2467H425.664V105.464ZM428.132 57.836C417.835 52.3299 406.283 49.5729 393.478 49.5729C380.182 49.5729 368.225 52.4515 357.609 58.198C346.987 63.9512 338.72 71.9285 332.803 82.1365C326.883 92.3405 323.927 103.924 323.927 116.884C323.927 129.845 327.006 141.39 333.167 151.511C339.328 161.638 348.001 169.615 359.189 175.446C370.376 181.279 383.424 184.197 398.343 184.197C410.175 184.197 420.631 182.373 429.714 178.728C438.791 175.083 446.329 169.86 452.33 163.054L443.808 153.821H361.926V127.577H460.841C461.002 125.959 461.163 124.217 461.328 122.353C461.485 120.492 461.571 118.829 461.571 117.369C461.571 103.276 458.569 91.2104 452.573 81.164C446.573 71.1203 438.426 63.3447 428.132 57.836Z" fill="white"/>
<path d="M168.145 140.7V158.488H118.884V127.299H142.18H168.145V140.7ZM189.498 63.2097C178.496 53.7903 163.048 49.0765 143.151 49.0765C132.796 49.0765 122.605 50.4187 112.575 53.0991C102.544 55.7795 93.9693 59.7176 86.8528 64.9149L94.076 79.2919H168.145V105.124V105.345V105.365H138.298C124.868 105.365 114.031 106.994 105.781 110.241C97.5295 113.491 91.5015 118.079 87.7025 124.01C83.8995 129.94 82 136.719 82 144.356C82 151.83 83.9782 158.572 87.9453 164.58C91.9084 170.594 97.5295 175.343 104.81 178.835C112.091 182.326 120.742 184.077 130.775 184.077C142.26 184.077 151.644 181.844 158.925 177.374C163.853 174.349 167.719 170.463 170.572 165.76V182.126H206V107.316C206 87.333 200.498 72.6345 189.498 63.2097Z" fill="white"/>
<path d="M665.117 153.09H598.242V80.9209H665.117V153.09ZM668.765 58.198C657.902 52.4515 645.499 49.5729 631.558 49.5729C617.777 49.5729 605.495 52.4515 594.717 58.198C583.931 63.9512 575.463 71.8911 569.303 82.0149C563.14 92.1415 560.062 103.76 560.062 116.884C560.062 129.845 563.14 141.39 569.303 151.511C575.463 161.638 583.931 169.615 594.717 175.446C605.495 181.279 617.777 184.197 631.558 184.197C645.499 184.197 657.902 181.279 668.765 175.446C679.627 169.615 688.138 161.679 694.301 151.633C700.459 141.589 703.542 130.005 703.542 116.884C703.542 103.76 700.459 92.1415 694.301 82.0149C688.138 71.8911 679.627 63.9512 668.765 58.198Z" fill="white"/>
</svg>
