<svg width="1044" height="186" viewBox="0 0 1044 186" fill="none" xmlns="http://www.w3.org/2000/svg">
<path d="M37.9372 69.6194V52.4413H0V183.175H37.9372V148.675V121.453V84.7537H81.2242V50.4964C68.9015 50.4964 58.4451 52.8901 49.8548 57.6655C44.3418 60.7311 38.9865 67.4541 37.9372 69.6194Z" fill="#34487A"/>
<path d="M273.586 69.6194V52.4413H235.648V183.175H273.586V148.675V121.453V84.7537H316.873V50.4964C304.55 50.4964 294.094 52.8901 285.503 57.6655C279.99 60.7311 273.82 68.0458 273.586 69.6194Z" fill="#34487A"/>
<path d="M761.906 69.6194V52.4413H723.969V183.175H761.906V148.675V121.453V84.7604H805.193V50.4964C792.87 50.4964 782.414 52.8901 773.824 57.6655C768.311 60.7311 765.482 64.7224 761.906 69.6194Z" fill="#34487A"/>
<path d="M1036.95 75.6471C1032.41 67.1409 1026.13 60.8253 1018.1 56.6924C1010.08 52.5622 1000.87 50.4958 990.501 50.4958C977.855 50.4958 966.748 53.5347 957.184 59.6098C951.746 63.0614 947.178 67.1796 943.418 71.915C940.343 66.9325 936.437 62.8116 931.65 59.6098C922.569 53.5347 912.032 50.4958 900.036 50.4958C889.495 50.4958 880.01 52.804 871.583 57.4204C866.784 60.0492 862.665 63.3994 859.18 67.4187V52.4407H822.946V183.175H860.882V151.589V117.564V83.1943H914.627V114.163V151.589V183.175H952.564V151.589V117.564V83.2998H1005.82V114.163V151.589V183.175H1043.76V108.33C1043.76 95.048 1041.49 84.1507 1036.95 75.6471Z" fill="#34487A"/>
<path d="M523.583 25.4723H559.754L566.14 7.72917C562.573 5.46102 558.195 3.75923 553.009 2.62649C547.819 1.49375 542.552 0.923378 537.202 0.923378C520.988 0.923378 508.506 5.29938 499.75 14.0474C490.996 22.7941 486.619 34.6224 486.619 49.5243V55.3577H466.435V84.5163H486.619V183.176H524.798V84.5163H557.142V55.3577H523.583V50.0119V25.4723Z" fill="#34487A"/>
<path d="M425.664 106.388H361.478V79.1701H425.664V106.388ZM428.132 58.7593C417.835 53.2533 406.283 50.4962 393.478 50.4962C380.182 50.4962 368.224 53.3748 357.609 59.1213C346.987 64.8745 338.72 72.8518 332.803 83.0598C326.882 93.2638 323.927 104.848 323.927 117.807C323.927 130.768 327.005 142.314 333.167 152.435C339.328 162.561 348.001 170.539 359.189 176.369C370.375 182.203 383.424 185.12 398.343 185.12C410.175 185.12 420.631 183.297 429.713 179.651C438.79 176.006 446.328 170.783 452.329 163.977L443.807 154.744H361.925V128.5H460.841C461.001 126.883 461.163 125.141 461.327 123.276C461.485 121.415 461.571 119.752 461.571 118.292C461.571 104.2 458.568 92.1337 452.573 82.0873C446.573 72.0436 438.425 64.2681 428.132 58.7593Z" fill="#34487A"/>
<path d="M168.145 141.624V159.411H118.884V128.222H142.18H168.145V141.624ZM189.498 64.1332C178.496 54.7137 163.048 50 143.151 50C132.796 50 122.605 51.3422 112.575 54.0226C102.544 56.7029 93.9693 60.6411 86.8528 65.8384L94.076 80.2154H168.145V106.048V106.269V106.289H138.298C124.868 106.289 114.031 107.918 105.781 111.165C97.5295 114.414 91.5015 119.002 87.7025 124.934C83.8995 130.864 82 137.643 82 145.279C82 152.754 83.9782 159.496 87.9453 165.503C91.9084 171.518 97.5295 176.266 104.81 179.758C112.091 183.249 120.742 185 130.775 185C142.26 185 151.644 182.767 158.925 178.297C163.853 175.272 167.719 171.387 170.572 166.684V183.05H206V108.239C206 88.2565 200.498 73.558 189.498 64.1332Z" fill="#34487A"/>
<path d="M665.117 154.014H598.242V81.8442H665.117V154.014ZM668.765 59.1213C657.902 53.3748 645.499 50.4962 631.558 50.4962C617.777 50.4962 605.495 53.3748 594.717 59.1213C583.931 64.8745 575.463 72.8144 569.303 82.9383C563.14 93.0648 560.062 104.683 560.062 117.807C560.062 130.768 563.14 142.314 569.303 152.435C575.463 162.561 583.931 170.539 594.717 176.369C605.495 182.203 617.777 185.12 631.558 185.12C645.499 185.12 657.902 182.203 668.765 176.369C679.627 170.539 688.138 162.603 694.301 152.556C700.459 142.513 703.542 130.929 703.542 117.807C703.542 104.683 700.459 93.0648 694.301 82.9383C688.138 72.8144 679.627 64.8745 668.765 59.1213Z" fill="#34487A"/>
</svg>
