<svg width="1158" height="199" viewBox="0 0 1158 199" fill="none" xmlns="http://www.w3.org/2000/svg">
<path d="M0.900392 197V22H76.6504C92.3171 22 105.817 24.5833 117.15 29.75C128.484 34.75 137.234 42 143.4 51.5C149.567 61 152.65 72.3333 152.65 85.5C152.65 98.5 149.567 109.75 143.4 119.25C137.234 128.75 128.484 136.083 117.15 141.25C105.817 146.25 92.3171 148.75 76.6504 148.75H23.4004L41.4004 130.5V197H0.900392ZM41.4004 135L23.4004 115.75H74.4004C86.9004 115.75 96.2337 113.083 102.4 107.75C108.567 102.417 111.65 95 111.65 85.5C111.65 75.8333 108.567 68.3333 102.4 63C96.2337 57.6667 86.9004 55 74.4004 55H23.4004L41.4004 35.75V135ZM223.006 199C211.839 199 201.839 196.833 193.006 192.5C184.339 188.167 177.589 181.583 172.756 172.75C167.923 163.75 165.506 152.333 165.506 138.5V62.5H204.506V132.75C204.506 143.917 206.839 152.167 211.506 157.5C216.339 162.667 223.089 165.25 231.756 165.25C237.756 165.25 243.089 164 247.756 161.5C252.423 158.833 256.089 154.833 258.756 149.5C261.423 144 262.756 137.167 262.756 129V62.5H301.756V197H264.756V160L271.506 170.75C267.006 180.083 260.339 187.167 251.506 192C242.839 196.667 233.339 199 223.006 199ZM402.387 199C390.553 199 380.387 196.5 371.887 191.5C363.387 186.5 356.887 178.917 352.387 168.75C347.887 158.417 345.637 145.417 345.637 129.75C345.637 113.917 347.97 100.917 352.637 90.75C357.47 80.5833 364.137 73 372.637 68C381.137 63 391.053 60.5 402.387 60.5C415.053 60.5 426.387 63.3333 436.387 69C446.553 74.6667 454.553 82.6667 460.387 93C466.387 103.333 469.387 115.583 469.387 129.75C469.387 143.75 466.387 155.917 460.387 166.25C454.553 176.583 446.553 184.667 436.387 190.5C426.387 196.167 415.053 199 402.387 199ZM322.887 197V11.5H361.887V89.75L359.387 129.5L360.137 169.5V197H322.887ZM395.637 167C402.137 167 407.887 165.5 412.887 162.5C418.053 159.5 422.137 155.25 425.137 149.75C428.303 144.083 429.887 137.417 429.887 129.75C429.887 121.917 428.303 115.25 425.137 109.75C422.137 104.25 418.053 100 412.887 97C407.887 94 402.137 92.5 395.637 92.5C389.137 92.5 383.303 94 378.137 97C372.97 100 368.887 104.25 365.887 109.75C362.887 115.25 361.387 121.917 361.387 129.75C361.387 137.417 362.887 144.083 365.887 149.75C368.887 155.25 372.97 159.5 378.137 162.5C383.303 165.5 389.137 167 395.637 167ZM480.494 197V11.5H519.494V197H480.494ZM540.689 197V62.5H579.689V197H540.689ZM560.189 43.75C553.023 43.75 547.189 41.6667 542.689 37.5C538.189 33.3333 535.939 28.1667 535.939 22C535.939 15.8333 538.189 10.6667 542.689 6.49999C547.189 2.33332 553.023 0.249985 560.189 0.249985C567.356 0.249985 573.189 2.24999 577.689 6.25C582.189 10.0833 584.439 15.0833 584.439 21.25C584.439 27.75 582.189 33.1667 577.689 37.5C573.356 41.6667 567.523 43.75 560.189 43.75ZM646.135 199C634.635 199 623.551 197.667 612.885 195C602.385 192.167 594.051 188.667 587.885 184.5L600.885 156.5C607.051 160.333 614.301 163.5 622.635 166C631.135 168.333 639.468 169.5 647.635 169.5C656.635 169.5 662.968 168.417 666.635 166.25C670.468 164.083 672.385 161.083 672.385 157.25C672.385 154.083 670.885 151.75 667.885 150.25C665.051 148.583 661.218 147.333 656.385 146.5C651.551 145.667 646.218 144.833 640.385 144C634.718 143.167 628.968 142.083 623.135 140.75C617.301 139.25 611.968 137.083 607.135 134.25C602.301 131.417 598.385 127.583 595.385 122.75C592.551 117.917 591.135 111.667 591.135 104C591.135 95.5 593.551 88 598.385 81.5C603.385 75 610.551 69.9167 619.885 66.25C629.218 62.4167 640.385 60.5 653.385 60.5C662.551 60.5 671.885 61.5 681.385 63.5C690.885 65.5 698.801 68.4167 705.135 72.25L692.135 100C685.635 96.1667 679.051 93.5833 672.385 92.25C665.885 90.75 659.551 90 653.385 90C644.718 90 638.385 91.1667 634.385 93.5C630.385 95.8333 628.385 98.8333 628.385 102.5C628.385 105.833 629.801 108.333 632.635 110C635.635 111.667 639.551 113 644.385 114C649.218 115 654.468 115.917 660.135 116.75C665.968 117.417 671.801 118.5 677.635 120C683.468 121.5 688.718 123.667 693.385 126.5C698.218 129.167 702.135 132.917 705.135 137.75C708.135 142.417 709.635 148.583 709.635 156.25C709.635 164.583 707.135 172 702.135 178.5C697.135 184.833 689.885 189.833 680.385 193.5C671.051 197.167 659.635 199 646.135 199ZM800.447 60.5C811.114 60.5 820.614 62.6667 828.947 67C837.447 71.1667 844.114 77.6667 848.947 86.5C853.781 95.1667 856.197 106.333 856.197 120V197H817.197V126C817.197 115.167 814.781 107.167 809.947 102C805.281 96.8333 798.614 94.25 789.947 94.25C783.781 94.25 778.197 95.5833 773.197 98.25C768.364 100.75 764.531 104.667 761.697 110C759.031 115.333 757.697 122.167 757.697 130.5V197H718.697V11.5H757.697V99.75L748.947 88.5C753.781 79.5 760.697 72.5833 769.697 67.75C778.697 62.9167 788.947 60.5 800.447 60.5ZM944.275 199C928.942 199 915.442 196 903.775 190C892.275 184 883.359 175.833 877.025 165.5C870.692 155 867.525 143.083 867.525 129.75C867.525 116.25 870.609 104.333 876.775 94C883.109 83.5 891.692 75.3333 902.525 69.5C913.359 63.5 925.609 60.5 939.275 60.5C952.442 60.5 964.275 63.3333 974.775 69C985.442 74.5 993.859 82.5 1000.03 93C1006.19 103.333 1009.28 115.75 1009.28 130.25C1009.28 131.75 1009.19 133.5 1009.03 135.5C1008.86 137.333 1008.69 139.083 1008.53 140.75H899.275V118H988.025L973.025 124.75C973.025 117.75 971.609 111.667 968.775 106.5C965.942 101.333 962.025 97.3333 957.025 94.5C952.025 91.5 946.192 90 939.525 90C932.859 90 926.942 91.5 921.775 94.5C916.775 97.3333 912.859 101.417 910.025 106.75C907.192 111.917 905.775 118.083 905.775 125.25V131.25C905.775 138.583 907.359 145.083 910.525 150.75C913.859 156.25 918.442 160.5 924.275 163.5C930.275 166.333 937.275 167.75 945.275 167.75C952.442 167.75 958.692 166.667 964.025 164.5C969.525 162.333 974.525 159.083 979.025 154.75L999.775 177.25C993.609 184.25 985.859 189.667 976.525 193.5C967.192 197.167 956.442 199 944.275 199ZM1077.99 199C1065.32 199 1053.91 196.167 1043.74 190.5C1033.57 184.667 1025.49 176.583 1019.49 166.25C1013.66 155.917 1010.74 143.75 1010.74 129.75C1010.74 115.583 1013.66 103.333 1019.49 93C1025.49 82.6667 1033.57 74.6667 1043.74 69C1053.91 63.3333 1065.32 60.5 1077.99 60.5C1089.32 60.5 1099.24 63 1107.74 68C1116.24 73 1122.82 80.5833 1127.49 90.75C1132.16 100.917 1134.49 113.917 1134.49 129.75C1134.49 145.417 1132.24 158.417 1127.74 168.75C1123.24 178.917 1116.74 186.5 1108.24 191.5C1099.91 196.5 1089.82 199 1077.99 199ZM1084.74 167C1091.07 167 1096.82 165.5 1101.99 162.5C1107.16 159.5 1111.24 155.25 1114.24 149.75C1117.41 144.083 1118.99 137.417 1118.99 129.75C1118.99 121.917 1117.41 115.25 1114.24 109.75C1111.24 104.25 1107.16 100 1101.99 97C1096.82 94 1091.07 92.5 1084.74 92.5C1078.24 92.5 1072.41 94 1067.24 97C1062.07 100 1057.91 104.25 1054.74 109.75C1051.74 115.25 1050.24 121.917 1050.24 129.75C1050.24 137.417 1051.74 144.083 1054.74 149.75C1057.91 155.25 1062.07 159.5 1067.24 162.5C1072.41 165.5 1078.24 167 1084.74 167ZM1119.99 197V169.5L1120.74 129.5L1118.24 89.75V11.5H1157.24V197H1119.99Z" fill="black" fill-opacity="0.06"/>
</svg>
